<svg width="176" height="36" viewBox="0 0 176 36" fill="none" xmlns="http://www.w3.org/2000/svg">
<path d="M156.476 6L163.858 20.2773L171.261 6H175.538L165.733 23.8125V34.4375H161.964V23.8125L152.159 6H156.476Z" fill="white"/>
<path d="M157.159 31.3711V34.4375H142.94V31.3711H157.159ZM143.683 6V34.4375H139.913V6H143.683Z" fill="white"/>
<path d="M105.913 7H109.663V25.6856C109.663 27.7597 109.188 29.486 108.237 30.8645C107.287 32.243 106.024 33.28 104.448 33.9756C102.886 34.6585 101.187 35 99.3506 35C97.4235 35 95.6787 34.6585 94.1162 33.9756C92.5667 33.28 91.3363 32.243 90.4248 30.8645C89.5264 29.486 89.0771 27.7597 89.0771 25.6856V7H92.8076V25.6856C92.8076 27.1274 93.0811 28.3162 93.6279 29.252C94.1748 30.1879 94.9365 30.8835 95.9131 31.3388C96.9027 31.794 98.0485 32.0217 99.3506 32.0217C100.666 32.0217 101.812 31.794 102.788 31.3388C103.778 30.8835 104.546 30.1879 105.093 29.252C105.64 28.3162 105.913 27.1274 105.913 25.6856V7Z" fill="white"/>
<path d="M82.3271 25.7852H86.0771C85.8818 27.582 85.3675 29.1901 84.5342 30.6094C83.7008 32.0286 82.5225 33.1549 80.999 33.9883C79.4756 34.8086 77.5745 35.2188 75.2959 35.2188C73.6292 35.2188 72.1123 34.9062 70.7451 34.2812C69.391 33.6562 68.2256 32.7708 67.249 31.625C66.2725 30.4661 65.5173 29.0794 64.9834 27.4648C64.4626 25.8372 64.2021 24.0273 64.2021 22.0352V19.2031C64.2021 17.2109 64.4626 15.4076 64.9834 13.793C65.5173 12.1654 66.279 10.7721 67.2686 9.61328C68.2712 8.45443 69.4756 7.5625 70.8818 6.9375C72.2881 6.3125 73.8701 6 75.6279 6C77.7764 6 79.5928 6.40365 81.0771 7.21094C82.5615 8.01823 83.7139 9.13802 84.5342 10.5703C85.3675 11.9896 85.8818 13.6367 86.0771 15.5117H82.3271C82.1449 14.1836 81.8063 13.0443 81.3115 12.0938C80.8167 11.1302 80.1136 10.388 79.2021 9.86719C78.2907 9.34635 77.0993 9.08594 75.6279 9.08594C74.3649 9.08594 73.2516 9.32682 72.2881 9.80859C71.3376 10.2904 70.5368 10.974 69.8857 11.8594C69.2477 12.7448 68.766 13.806 68.4404 15.043C68.1149 16.2799 67.9521 17.6536 67.9521 19.1641V22.0352C67.9521 23.4284 68.0954 24.737 68.3818 25.9609C68.6813 27.1849 69.1305 28.2591 69.7295 29.1836C70.3285 30.1081 71.0902 30.8372 72.0146 31.3711C72.9391 31.8919 74.0329 32.1523 75.2959 32.1523C76.8975 32.1523 78.1735 31.8984 79.124 31.3906C80.0745 30.8828 80.7907 30.1536 81.2725 29.2031C81.7673 28.2526 82.1188 27.1133 82.3271 25.7852Z" fill="white"/>
<path d="M57.4521 25.7852H61.2021C61.0068 27.582 60.4925 29.1901 59.6592 30.6094C58.8258 32.0286 57.6475 33.1549 56.124 33.9883C54.6006 34.8086 52.6995 35.2188 50.4209 35.2188C48.7542 35.2188 47.2373 34.9062 45.8701 34.2812C44.516 33.6562 43.3506 32.7708 42.374 31.625C41.3975 30.4661 40.6423 29.0794 40.1084 27.4648C39.5876 25.8372 39.3271 24.0273 39.3271 22.0352V19.2031C39.3271 17.2109 39.5876 15.4076 40.1084 13.793C40.6423 12.1654 41.404 10.7721 42.3936 9.61328C43.3962 8.45443 44.6006 7.5625 46.0068 6.9375C47.4131 6.3125 48.9951 6 50.7529 6C52.9014 6 54.7178 6.40365 56.2021 7.21094C57.6865 8.01823 58.8389 9.13802 59.6592 10.5703C60.4925 11.9896 61.0068 13.6367 61.2021 15.5117H57.4521C57.2699 14.1836 56.9313 13.0443 56.4365 12.0938C55.9417 11.1302 55.2386 10.388 54.3271 9.86719C53.4157 9.34635 52.2243 9.08594 50.7529 9.08594C49.4899 9.08594 48.3766 9.32682 47.4131 9.80859C46.4626 10.2904 45.6618 10.974 45.0107 11.8594C44.3727 12.7448 43.891 13.806 43.5654 15.043C43.2399 16.2799 43.0771 17.6536 43.0771 19.1641V22.0352C43.0771 23.4284 43.2204 24.737 43.5068 25.9609C43.8063 27.1849 44.2555 28.2591 44.8545 29.1836C45.4535 30.1081 46.2152 30.8372 47.1396 31.3711C48.0641 31.8919 49.1579 32.1523 50.4209 32.1523C52.0225 32.1523 53.2985 31.8984 54.249 31.3906C55.1995 30.8828 55.9157 30.1536 56.3975 29.2031C56.8923 28.2526 57.2438 27.1133 57.4521 25.7852Z" fill="white"/>
<path d="M116.913 8.65552C116.913 7.55095 116.018 6.65552 114.913 6.65552C113.809 6.65552 112.913 7.55095 112.913 8.65552H116.913ZM116.913 34.6555V8.65552H112.913V34.6555H116.913Z" fill="#35B209"/>
<path d="M126.913 16.5C126.913 15.3954 126.018 14.5 124.913 14.5C123.809 14.5 122.913 15.3954 122.913 16.5H126.913ZM126.913 34.6555V16.5H122.913V34.6555H126.913Z" fill="#35B209"/>
<path d="M136.913 8.65552C136.913 7.55095 136.018 6.65552 134.913 6.65552C133.809 6.65552 132.913 7.55095 132.913 8.65552H136.913ZM136.913 34.6555V8.65552H132.913V34.6555H136.913Z" fill="#35B209"/>
<path d="M5.29785 35H0.610352L15.4297 0.0878906H20.4346L35.3271 35H30.3223L25.8057 24.0137H19L15.4297 20.3516H24.292L17.7734 4.53125L5.29785 35Z" fill="white"/>
</svg>
