<svg width="15" height="9" viewBox="0 0 15 9" fill="none" xmlns="http://www.w3.org/2000/svg">
<path d="M4.164 8.4253C4.1 8.4253 4.056 8.3933 4.032 8.3293L2.46 4.5253C2.452 4.5013 2.436 4.4893 2.412 4.4893H0.684C0.652 4.4893 0.636 4.5053 0.636 4.5373V8.3053C0.636 8.3853 0.596 8.4253 0.516 8.4253H0.12C0.04 8.4253 0 8.3853 0 8.3053V0.145301C0 0.0653009 0.04 0.025301 0.12 0.025301H2.556C3.172 0.025301 3.668 0.233301 4.044 0.649302C4.428 1.0653 4.62 1.6093 4.62 2.2813C4.62 2.8413 4.484 3.3133 4.212 3.6973C3.94 4.0733 3.568 4.3173 3.096 4.4293C3.064 4.4453 3.056 4.4653 3.072 4.4893L4.668 8.2813L4.68 8.3293C4.68 8.3933 4.644 8.4253 4.572 8.4253H4.164ZM0.516 0.273244C0.516 0.273244 0.516 0.458559 0.516 0.577301C0.516 1.52477 0.530397 2.02997 0.516 3.00345C0.510205 3.39528 0.636 4.06697 0.636 4.06697C0.636 4.06697 1.90625 4.42513 2.496 3.9613C3.08575 3.49747 3.40625 3.9133 3.576 3.5053C3.74575 3.0973 4.16561 2.8116 4.164 2.2813C4.16239 1.74896 3.90625 1.42513 3.564 1.0573C3.22175 0.689474 3.072 0.874631 2.496 0.589301C1.92 0.303972 0.516 0.273244 0.516 0.273244Z" fill="#D9D9D9"/>
<path d="M13.5128 0.144C14.1288 0.144 14.0128 0.923828 14.0128 1.42383C14.0128 1.92383 14.0128 2.73583 14.0128 3.42383C14.0128 4.10383 14.0062 4.584 13.5128 4.584C11.8087 4.584 8.05956 4.536 7.44356 4.536H5.53556C5.50356 4.536 5.48756 4.552 5.48756 4.584V8.304C5.48756 8.384 5.44756 8.424 5.36756 8.424H4.97156C4.89156 8.424 4.85156 8.384 4.85156 8.304V0.12C4.85156 0.04 4.89156 0 4.97156 0L13.5128 0.144ZM7.35427 4.008C8.01284 4.42383 13.17 4.32 13.442 4.008C13.722 3.696 13.5128 2.42383 13.5128 1.92383C13.5128 1.39583 13.7928 1.73583 13.5128 1.42383C13.5128 0.923828 13.5128 0.923828 13.5128 0.576C13.5128 0.228171 11.0128 0.423828 9.51284 0.588C7.96295 0.757633 5.53556 0.576 5.53556 0.576C5.50356 0.576 5.48756 0.592 5.48756 0.624V3.96C5.48756 3.992 5.53556 4.008 5.53556 4.008C5.53556 4.008 6.6957 3.59217 7.35427 4.008Z" fill="#D9D9D9"/>
</svg>
