<svg width="30" height="20" viewBox="0 0 30 20" fill="none" xmlns="http://www.w3.org/2000/svg">
<path d="M8.90916 20C8.77223 20 8.67809 19.924 8.62674 19.7721L5.26334 10.7422C5.24622 10.6852 5.21199 10.6567 5.16064 10.6567H1.46346C1.395 10.6567 1.36077 10.6947 1.36077 10.7707V19.7151C1.36077 19.9051 1.27518 20 1.10402 20H0.256748C0.0855828 20 0 19.9051 0 19.7151V0.344916C0 0.155012 0.0855828 0.0600595 0.256748 0.0600595H5.46874C6.78671 0.0600595 7.84793 0.553811 8.65241 1.54131C9.47401 2.52882 9.8848 3.82016 9.8848 5.41536C9.8848 6.74469 9.59382 7.86512 9.01186 8.77666C8.4299 9.66921 7.63398 10.2484 6.6241 10.5143C6.55564 10.5523 6.53852 10.5997 6.57275 10.6567L9.9875 19.6582L10.0132 19.7721C10.0132 19.924 9.93615 20 9.7821 20H8.90916ZM1.10402 0.648626C1.10402 0.648626 1.10402 1.08853 1.10402 1.3704C1.10402 3.61951 1.13482 4.81875 1.10402 7.12961C1.09162 8.05973 1.36077 9.65419 1.36077 9.65419C1.36077 9.65419 4.07855 10.5044 5.34036 9.40335C6.60217 8.30231 7.2879 9.28941 7.65109 8.32089C8.01429 7.35238 8.9126 6.67417 8.90916 5.41536C8.90571 4.15169 8.35769 3.38298 7.62542 2.50983C6.89315 1.63667 6.57275 2.0762 5.34036 1.39888C4.10797 0.721569 1.10402 0.648626 1.10402 0.648626Z" fill="#1D1D1D"/>
<path d="M28.9116 0.341827C30.2296 0.341827 29.9814 2.19299 29.9814 3.37989C29.9814 4.56679 29.9814 6.49432 29.9814 8.12749C29.9814 9.74168 29.9672 10.8815 28.9116 10.8815C25.2655 10.8815 17.244 10.7676 15.926 10.7676H11.8437C11.7752 10.7676 11.741 10.8056 11.741 10.8815V19.7121C11.741 19.902 11.6554 19.9969 11.4843 19.9969H10.637C10.4658 19.9969 10.3802 19.902 10.3802 19.7121V0.284856C10.3802 0.094952 10.4658 0 10.637 0L28.9116 0.341827ZM15.735 9.5142C17.144 10.5013 28.1781 10.2548 28.76 9.5142C29.3591 8.77357 28.9116 5.75369 28.9116 4.56679C28.9116 3.31342 29.5107 4.12051 28.9116 3.37989C28.9116 2.19299 28.9116 2.19299 28.9116 1.36731C28.9116 0.541634 23.5627 1.00608 20.3534 1.3958C17.0373 1.79847 11.8437 1.36731 11.8437 1.36731C11.7752 1.36731 11.741 1.40529 11.741 1.48125V9.40026C11.741 9.47622 11.8437 9.5142 11.8437 9.5142C11.8437 9.5142 14.3259 8.52711 15.735 9.5142Z" fill="#1D1D1D"/>
</svg>
