<svg width="15" height="10" viewBox="0 0 15 10" fill="none" xmlns="http://www.w3.org/2000/svg">
<path d="M4.31244 9.00147C4.24844 9.00147 4.20444 8.96947 4.18044 8.90547L2.60844 5.10147C2.60044 5.07747 2.58444 5.06547 2.56044 5.06547H0.832438C0.800438 5.06547 0.784438 5.08147 0.784438 5.11347V8.88147C0.784438 8.96147 0.744438 9.00147 0.664438 9.00147H0.268438C0.188438 9.00147 0.148438 8.96147 0.148438 8.88147V0.721473C0.148438 0.641473 0.188438 0.601473 0.268438 0.601473H2.70444C3.32044 0.601473 3.81644 0.809473 4.19244 1.22547C4.57644 1.64147 4.76844 2.18547 4.76844 2.85747C4.76844 3.41747 4.63244 3.88947 4.36044 4.27347C4.08844 4.64947 3.71644 4.89347 3.24444 5.00547C3.21244 5.02147 3.20444 5.04147 3.22044 5.06547L4.81644 8.85747L4.82844 8.90547C4.82844 8.96947 4.79244 9.00147 4.72044 9.00147H4.31244ZM0.664438 0.849415C0.664438 0.849415 0.664438 1.03473 0.664438 1.15347C0.664438 2.10094 0.678834 2.60614 0.664438 3.57963C0.658643 3.97146 0.784438 4.64314 0.784438 4.64314C0.784438 4.64314 2.05469 5.0013 2.64444 4.53747C3.23419 4.07365 3.55469 4.48947 3.72444 4.08147C3.89419 3.67347 4.31405 3.38777 4.31244 2.85747C4.31082 2.32513 4.05469 2.0013 3.71244 1.63347C3.37019 1.26565 3.22044 1.4508 2.64444 1.16547C2.06844 0.880144 0.664438 0.849415 0.664438 0.849415Z" fill="#1D1D1D"/>
<path d="M13.6613 0.720171C14.2773 0.720171 14.1613 1.5 14.1613 2C14.1613 2.5 14.1613 3.312 14.1613 4C14.1613 4.68 14.1546 5.16017 13.6613 5.16017C11.9571 5.16017 8.208 5.11217 7.592 5.11217H5.684C5.652 5.11217 5.636 5.12817 5.636 5.16017V8.88017C5.636 8.96017 5.596 9.00017 5.516 9.00017H5.12C5.04 9.00017 5 8.96017 5 8.88017V0.696172C5 0.616172 5.04 0.576172 5.12 0.576172L13.6613 0.720171ZM7.50271 4.58417C8.16128 5 13.3184 4.89617 13.5904 4.58417C13.8704 4.27217 13.6613 3 13.6613 2.5C13.6613 1.972 13.9413 2.312 13.6613 2C13.6613 1.5 13.6613 1.5 13.6613 1.15217C13.6613 0.804343 11.1613 1 9.66128 1.16417C8.11138 1.3338 5.684 1.15217 5.684 1.15217C5.652 1.15217 5.636 1.16817 5.636 1.20017V4.53617C5.636 4.56817 5.684 4.58417 5.684 4.58417C5.684 4.58417 6.84414 4.16834 7.50271 4.58417Z" fill="#1D1D1D"/>
</svg>
