<svg width="18" height="18" viewBox="0 0 18 18" fill="none" xmlns="http://www.w3.org/2000/svg">
<path d="M9 0L9.70061 2.55799L10.9347 0.210415L11.0691 2.85921L12.779 0.831821L12.3408 3.44757L14.4466 1.83516L13.4563 4.29555L15.8595 3.17352L14.3634 5.36351L16.9516 4.78432L15.0198 6.6015L17.672 6.59225L15.3946 7.95165L17.9868 8.51275L15.4705 9.35082L17.8814 10.456L15.2438 10.7336L17.3608 12.3312L14.7252 12.0353L16.4492 14.0507L13.9388 13.1951L15.1893 15.534L12.9215 14.1587L13.64 16.7117L11.7209 14.8811L11.8737 17.5289L10.393 15.3285L9.97307 17.9472L9 15.48L8.02693 17.9472L7.60699 15.3285L6.12629 17.5289L6.27912 14.8811L4.36002 16.7117L5.07847 14.1587L2.8107 15.534L4.06119 13.1951L1.5508 14.0507L3.27484 12.0353L0.63921 12.3312L2.7562 10.7336L0.118562 10.456L2.5295 9.35082L0.0131989 8.51275L2.60536 7.95165L0.32805 6.59225L2.98023 6.6015L1.04839 4.78432L3.63658 5.36351L2.14054 3.17352L4.54371 4.29555L3.55343 1.83516L5.65921 3.44757L5.221 0.831821L6.93093 2.85921L7.06527 0.210415L8.29939 2.55799L9 0Z" fill="#1D1D1D"/>
</svg>
