<svg width="18" height="18" viewBox="0 0 18 18" fill="none" xmlns="http://www.w3.org/2000/svg">
<path d="M8.90046 1.03743C8.91203 0.916827 9.08797 0.916827 9.09954 1.03743L9.50079 5.21919C9.51065 5.322 9.6509 5.34421 9.69205 5.24949L11.3659 1.39638C11.4142 1.28526 11.5815 1.33963 11.5552 1.4579L10.6446 5.55899C10.6222 5.65981 10.7487 5.72428 10.8172 5.64691L13.5998 2.49963C13.68 2.40887 13.8223 2.51228 13.7608 2.61665L11.6274 6.23562C11.575 6.32459 11.6754 6.425 11.7644 6.37255L15.3833 4.23918C15.4877 4.17766 15.5911 4.32 15.5004 4.40025L12.3531 7.18285C12.2757 7.25125 12.3402 7.37777 12.441 7.35539L16.5421 6.44476C16.6604 6.4185 16.7147 6.58583 16.6036 6.6341L12.7505 8.30795C12.6558 8.3491 12.678 8.48935 12.7808 8.49921L16.9626 8.90046C17.0832 8.91203 17.0832 9.08797 16.9626 9.09954L12.7808 9.50079C12.678 9.51065 12.6558 9.6509 12.7505 9.69205L16.6036 11.3659C16.7147 11.4142 16.6604 11.5815 16.5421 11.5552L12.441 10.6446C12.3402 10.6222 12.2757 10.7487 12.3531 10.8172L15.5004 13.5998C15.5911 13.68 15.4877 13.8223 15.3833 13.7608L11.7644 11.6274C11.6754 11.575 11.575 11.6754 11.6274 11.7644L13.7608 15.3833C13.8223 15.4877 13.68 15.5911 13.5998 15.5004L10.8172 12.3531C10.7487 12.2757 10.6222 12.3402 10.6446 12.441L11.5552 16.5421C11.5815 16.6604 11.4142 16.7147 11.3659 16.6036L9.69205 12.7505C9.6509 12.6558 9.51065 12.678 9.50079 12.7808L9.09954 16.9626C9.08797 17.0832 8.91203 17.0832 8.90046 16.9626L8.49921 12.7808C8.48935 12.678 8.3491 12.6558 8.30795 12.7505L6.6341 16.6036C6.58583 16.7147 6.4185 16.6604 6.44476 16.5421L7.35539 12.441C7.37777 12.3402 7.25125 12.2757 7.18285 12.3531L4.40025 15.5004C4.32 15.5911 4.17766 15.4877 4.23918 15.3833L6.37255 11.7644C6.425 11.6754 6.32459 11.575 6.23562 11.6274L2.61665 13.7608C2.51228 13.8223 2.40887 13.68 2.49963 13.5998L5.64691 10.8172C5.72428 10.7487 5.65981 10.6222 5.55899 10.6446L1.4579 11.5552C1.33963 11.5815 1.28526 11.4142 1.39638 11.3659L5.24949 9.69205C5.34421 9.6509 5.322 9.51065 5.21919 9.50079L1.03743 9.09954C0.916827 9.08797 0.916827 8.91203 1.03743 8.90046L5.21919 8.49921C5.322 8.48935 5.34421 8.3491 5.24949 8.30795L1.39638 6.6341C1.28526 6.58583 1.33963 6.4185 1.4579 6.44476L5.55899 7.35539C5.65981 7.37777 5.72428 7.25125 5.64691 7.18285L2.49963 4.40025C2.40887 4.32 2.51228 4.17766 2.61665 4.23918L6.23562 6.37255C6.32459 6.425 6.425 6.32459 6.37255 6.23562L4.23918 2.61665C4.17766 2.51228 4.32 2.40887 4.40025 2.49963L7.18285 5.64691C7.25125 5.72428 7.37777 5.65981 7.35539 5.55899L6.44476 1.4579C6.4185 1.33963 6.58583 1.28526 6.6341 1.39638L8.30795 5.24949C8.3491 5.34421 8.48935 5.322 8.49921 5.21919L8.90046 1.03743Z" fill="#e7e7e7"/>
</svg>
